<!DOCTYPE svg PUBLIC "-//W3C//DTD SVG 1.1//EN" "http://www.w3.org/Graphics/SVG/1.1/DTD/svg11.dtd">
<!-- Uploaded to: SVG Repo, www.svgrepo.com, Transformed by: SVG Repo Mixer Tools -->
<svg fill="#ffffff" version="1.1" id="Layer_1" xmlns="http://www.w3.org/2000/svg" xmlns:xlink="http://www.w3.org/1999/xlink" viewBox="0 0 300 300" xml:space="preserve" width="800px" height="800px" stroke="#ffffff">
<g id="SVGRepo_bgCarrier" stroke-width="0"/>
<g id="SVGRepo_tracerCarrier" stroke-linecap="round" stroke-linejoin="round"/>
<g id="SVGRepo_iconCarrier"> <g> <g> <g> <path d="M290.323,99.194c5.337,0,9.677-4.34,9.677-9.677V70.162c0-5.337-4.34-9.677-9.677-9.677h-53.226 c0-5.337-4.34-9.677-9.677-9.677h-67.742c-5.337,0-9.677,4.34-9.677,9.677v19.355c0,5.337,4.34,9.677,9.677,9.677h9.677v23.661 c0,3.373-0.203,6.784-0.595,10.147l-8.419,71.584c-0.44,3.731-0.663,7.519-0.663,11.269v2.018 c0,12.348,2.453,24.697,7.074,36.155h-21.59V99.194c0-5.337-4.34-9.677-9.677-9.677h-29.032c-5.337,0-9.677,4.34-9.677,9.677 v145.161H82.258V213.29c0-8.502-0.571-17.081-1.694-25.5l-7.466-55.998c-0.344-2.569-0.518-5.202-0.518-7.815 c0-9.135,2.158-18.285,6.247-26.453l6.421-12.847h11.526c5.337,0,9.677-4.34,9.677-9.677V55.646c0-5.337-4.34-9.677-9.677-9.677 H9.677C4.34,45.969,0,50.308,0,55.646V75c0,5.337,4.34,9.677,9.677,9.677h9.677v159.677H0v9.677h106.452h29.032H300v-9.677 h-19.355V99.194H290.323z M9.677,75V55.646h87.097L96.779,75H9.677z M72.58,244.355H29.032V84.677h45.397l-4.258,8.516 c-4.752,9.508-7.268,20.153-7.268,30.784c0,3.039,0.203,6.102,0.605,9.097l7.466,55.998c1.065,7.994,1.606,16.142,1.606,24.218 V244.355z M106.452,244.355V99.194h29.032l0.005,145.161H106.452z M159.677,79.839V60.485h67.742l0.005,19.355H159.677z M203.226,244.355h-25.945c-5.173-11.299-7.926-23.724-7.926-36.155v-2.023c0-3.373,0.203-6.784,0.595-10.147l8.419-71.584 c0.44-3.731,0.663-7.519,0.663-11.269V89.516h24.194V244.355z M237.096,176.042c0,2.792-0.658,5.589-1.911,8.085 c-1.916,3.837-2.927,8.129-2.927,12.411v47.816h-19.355V89.516h9.677c0,5.337,4.34,9.677,9.677,9.677v42.977 c0.001,4.283,1.012,8.575,2.928,12.412c1.253,2.497,1.911,5.298,1.911,8.085V176.042z M270.968,244.355h-29.032v-47.816 c0-2.792,0.658-5.589,1.911-8.085c1.916-3.837,2.927-8.129,2.927-12.411v-13.374c0-4.282-1.011-8.574-2.927-12.411 c-1.253-2.497-1.911-5.298-1.911-8.085V99.194h29.032V244.355z M270.969,89.516h-29.032h-9.677v-1.345 c2.879-1.679,4.839-4.766,4.839-8.332v-9.677h53.224v19.354h-9.677H270.969z"/> <rect x="53.226" y="181.452" width="9.677" height="9.677"/> <rect x="53.226" y="200.806" width="9.677" height="9.677"/> <rect x="53.226" y="220.161" width="9.677" height="9.677"/> <rect x="179.032" y="191.129" width="9.677" height="9.677"/> <rect x="179.032" y="210.484" width="9.677" height="9.677"/> </g> </g> </g> </g>
</svg>