<svg viewBox="0 0 24 24" width="20" height="20" xmlns="http://www.w3.org/2000/svg">
  <path fill="currentColor" d="M12,7c-2.76,0-5,2.24-5,5s2.24,5,5,5s5-2.24,5-5S14.76,7,12,7L12,7z 
    M2,13l2,0c0.55,0,1-0.45,1-1s-0.45-1-1-1l-2,0c-0.55,0-1,0.45-1,1S1.45,13,2,13z 
    M20,13l2,0c0.55,0,1-0.45,1-1s-0.45-1-1-1l-2,0c-0.55,0-1,0.45-1,1S19.45,13,20,13z 
    M11,2v2c0,0.55,0.45,1,1,1s1-0.45,1-1V2c0-0.55-0.45-1-1-1S11,1.45,11,2z 
    M11,20v2c0,0.55,0.45,1,1,1s1-0.45,1-1v-2c0-0.55-0.45-1-1-1C11.45,19,11,19.45,11,20z 
    M6.34,7.34l-1.41,1.41c-0.39,0.39-0.39,1.02,0,1.41s1.02,0.39,1.41,0l1.41-1.41
    c0.39-0.39,0.39-1.02,0-1.41S6.73,6.95,6.34,7.34z 
    M17.66,17.66l-1.41,1.41c-0.39,0.39-0.39,1.02,0,1.41s1.02,0.39,1.41,0l1.41-1.41
    c0.39-0.39,0.39-1.02,0-1.41S18.05,17.27,17.66,17.66z" />
</svg>
