solid CATIA STL
  facet normal  0.000000e+000  0.000000e+000  1.000000e+000
    outer loop
      vertex -1.739352e+001  1.300000e+001  1.500000e+001
      vertex -1.939352e+001  1.243450e-014  1.500000e+001
      vertex -1.739352e+001  2.000000e+000  1.500000e+001
    endloop
  endfacet
  facet normal  0.000000e+000  0.000000e+000  1.000000e+000
    outer loop
      vertex  2.060648e+001  8.881784e-016  1.500000e+001
      vertex  2.060648e+001  1.500000e+001  1.500000e+001
      vertex  1.860648e+001  1.300000e+001  1.500000e+001
    endloop
  endfacet
  facet normal  0.000000e+000  0.000000e+000  1.000000e+000
    outer loop
      vertex  2.060648e+001  8.881784e-016  1.500000e+001
      vertex  1.860648e+001  1.300000e+001  1.500000e+001
      vertex  1.860648e+001  2.000000e+000  1.500000e+001
    endloop
  endfacet
  facet normal  0.000000e+000  0.000000e+000  1.000000e+000
    outer loop
      vertex  2.060648e+001  8.881784e-016  1.500000e+001
      vertex  1.860648e+001  2.000000e+000  1.500000e+001
      vertex -1.739352e+001  2.000000e+000  1.500000e+001
    endloop
  endfacet
  facet normal  0.000000e+000  0.000000e+000  1.000000e+000
    outer loop
      vertex  2.060648e+001  8.881784e-016  1.500000e+001
      vertex -1.739352e+001  2.000000e+000  1.500000e+001
      vertex -1.939352e+001  1.243450e-014  1.500000e+001
    endloop
  endfacet
  facet normal  0.000000e+000  0.000000e+000  1.000000e+000
    outer loop
      vertex -1.739352e+001  6.118945e+001  1.500000e+001
      vertex -1.739352e+001  5.000000e+001  1.500000e+001
      vertex -1.539352e+001  5.200000e+001  1.500000e+001
    endloop
  endfacet
  facet normal  0.000000e+000  -0.000000e+000  1.000000e+000
    outer loop
      vertex -1.739352e+001  6.118945e+001  1.500000e+001
      vertex -1.539352e+001  5.200000e+001  1.500000e+001
      vertex -1.539352e+001  6.025684e+001  1.500000e+001
    endloop
  endfacet
  facet normal  0.000000e+000  -0.000000e+000  1.000000e+000
    outer loop
      vertex -1.739352e+001  6.118945e+001  1.500000e+001
      vertex -1.539352e+001  6.025684e+001  1.500000e+001
      vertex -6.165580e+000  6.800000e+001  1.500000e+001
    endloop
  endfacet
  facet normal  0.000000e+000  0.000000e+000  1.000000e+000
    outer loop
      vertex -1.739352e+001  6.118945e+001  1.500000e+001
      vertex -6.165580e+000  6.800000e+001  1.500000e+001
      vertex -6.893520e+000  7.000000e+001  1.500000e+001
    endloop
  endfacet
  facet normal  0.000000e+000  0.000000e+000  1.000000e+000
    outer loop
      vertex -1.939352e+001  1.500000e+001  1.500000e+001
      vertex -1.939352e+001  1.243450e-014  1.500000e+001
      vertex -1.739352e+001  1.300000e+001  1.500000e+001
    endloop
  endfacet
  facet normal  0.000000e+000  -0.000000e+000  1.000000e+000
    outer loop
      vertex -1.939352e+001  1.500000e+001  1.500000e+001
      vertex -1.739352e+001  1.300000e+001  1.500000e+001
      vertex -4.893520e+000  1.300000e+001  1.500000e+001
    endloop
  endfacet
  facet normal  0.000000e+000  0.000000e+000  1.000000e+000
    outer loop
      vertex -1.939352e+001  1.500000e+001  1.500000e+001
      vertex -4.893520e+000  1.300000e+001  1.500000e+001
      vertex -6.893520e+000  1.500000e+001  1.500000e+001
    endloop
  endfacet
  facet normal  0.000000e+000  0.000000e+000  1.000000e+000
    outer loop
      vertex  1.860648e+001  1.300000e+001  1.500000e+001
      vertex  2.060648e+001  1.500000e+001  1.500000e+001
      vertex  6.106480e+000  1.300000e+001  1.500000e+001
    endloop
  endfacet
  facet normal  0.000000e+000  0.000000e+000  1.000000e+000
    outer loop
      vertex  6.106480e+000  1.300000e+001  1.500000e+001
      vertex  2.060648e+001  1.500000e+001  1.500000e+001
      vertex  8.106480e+000  1.500000e+001  1.500000e+001
    endloop
  endfacet
  facet normal  0.000000e+000  0.000000e+000  9.999999e-001
    outer loop
      vertex  6.106480e+000  1.300000e+001  1.500000e+001
      vertex  8.106480e+000  1.500000e+001  1.500000e+001
      vertex  6.106480e+000  6.800000e+001  1.500000e+001
    endloop
  endfacet
  facet normal  -0.000000e+000  0.000000e+000  9.999999e-001
    outer loop
      vertex  6.106480e+000  6.800000e+001  1.500000e+001
      vertex  8.106480e+000  1.500000e+001  1.500000e+001
      vertex  8.106480e+000  7.000000e+001  1.500000e+001
    endloop
  endfacet
  facet normal  0.000000e+000  0.000000e+000  9.999999e-001
    outer loop
      vertex  6.106480e+000  6.800000e+001  1.500000e+001
      vertex  8.106480e+000  7.000000e+001  1.500000e+001
      vertex -6.165580e+000  6.800000e+001  1.500000e+001
    endloop
  endfacet
  facet normal  0.000000e+000  -0.000000e+000  1.000000e+000
    outer loop
      vertex -6.165580e+000  6.800000e+001  1.500000e+001
      vertex  8.106480e+000  7.000000e+001  1.500000e+001
      vertex -6.893520e+000  7.000000e+001  1.500000e+001
    endloop
  endfacet
  facet normal  0.000000e+000  0.000000e+000  1.000000e+000
    outer loop
      vertex -1.539352e+001  5.200000e+001  1.500000e+001
      vertex -1.739352e+001  5.000000e+001  1.500000e+001
      vertex -4.893520e+000  5.200000e+001  1.500000e+001
    endloop
  endfacet
  facet normal  0.000000e+000  0.000000e+000  1.000000e+000
    outer loop
      vertex -4.893520e+000  5.200000e+001  1.500000e+001
      vertex -1.739352e+001  5.000000e+001  1.500000e+001
      vertex -6.893520e+000  5.000000e+001  1.500000e+001
    endloop
  endfacet
  facet normal  -0.000000e+000  0.000000e+000  1.000000e+000
    outer loop
      vertex -4.893520e+000  5.200000e+001  1.500000e+001
      vertex -6.893520e+000  5.000000e+001  1.500000e+001
      vertex -4.893520e+000  1.300000e+001  1.500000e+001
    endloop
  endfacet
  facet normal  0.000000e+000  0.000000e+000  1.000000e+000
    outer loop
      vertex -4.893520e+000  1.300000e+001  1.500000e+001
      vertex -6.893520e+000  5.000000e+001  1.500000e+001
      vertex -6.893520e+000  1.500000e+001  1.500000e+001
    endloop
  endfacet
  facet normal  6.427876e-001 -7.660445e-001  0.000000e+000
    outer loop
      vertex -1.539352e+001  6.025684e+001  1.000000e+001
      vertex -6.165580e+000  6.800000e+001  1.000000e+001
      vertex -1.539352e+001  6.025684e+001  1.500000e+001
    endloop
  endfacet
  facet normal  6.427876e-001 -7.660445e-001  0.000000e+000
    outer loop
      vertex -1.539352e+001  6.025684e+001  1.500000e+001
      vertex -6.165580e+000  6.800000e+001  1.000000e+001
      vertex -6.165580e+000  6.800000e+001  1.500000e+001
    endloop
  endfacet
  facet normal  0.000000e+000 -9.999999e-001  0.000000e+000
    outer loop
      vertex -6.165580e+000  6.800000e+001  1.000000e+001
      vertex  6.106480e+000  6.800000e+001  1.000000e+001
      vertex -6.165580e+000  6.800000e+001  1.500000e+001
    endloop
  endfacet
  facet normal  0.000000e+000 -9.999999e-001  0.000000e+000
    outer loop
      vertex -6.165580e+000  6.800000e+001  1.500000e+001
      vertex  6.106480e+000  6.800000e+001  1.000000e+001
      vertex  6.106480e+000  6.800000e+001  1.500000e+001
    endloop
  endfacet
  facet normal -1.000000e+000  0.000000e+000  0.000000e+000
    outer loop
      vertex  6.106480e+000  6.800000e+001  1.000000e+001
      vertex  6.106480e+000  1.300000e+001  1.000000e+001
      vertex  6.106480e+000  6.800000e+001  1.500000e+001
    endloop
  endfacet
  facet normal -1.000000e+000  -0.000000e+000  0.000000e+000
    outer loop
      vertex  6.106480e+000  6.800000e+001  1.500000e+001
      vertex  6.106480e+000  1.300000e+001  1.000000e+001
      vertex  6.106480e+000  1.300000e+001  1.500000e+001
    endloop
  endfacet
  facet normal  0.000000e+000 -1.000000e+000  0.000000e+000
    outer loop
      vertex  6.106480e+000  1.300000e+001  1.000000e+001
      vertex  1.860648e+001  1.300000e+001  1.000000e+001
      vertex  6.106480e+000  1.300000e+001  1.500000e+001
    endloop
  endfacet
  facet normal  0.000000e+000 -1.000000e+000  0.000000e+000
    outer loop
      vertex  6.106480e+000  1.300000e+001  1.500000e+001
      vertex  1.860648e+001  1.300000e+001  1.000000e+001
      vertex  1.860648e+001  1.300000e+001  1.500000e+001
    endloop
  endfacet
  facet normal -9.999999e-001  0.000000e+000  0.000000e+000
    outer loop
      vertex  1.860648e+001  1.300000e+001  1.000000e+001
      vertex  1.860648e+001  2.000000e+000  1.000000e+001
      vertex  1.860648e+001  1.300000e+001  1.500000e+001
    endloop
  endfacet
  facet normal -9.999999e-001  -0.000000e+000  0.000000e+000
    outer loop
      vertex  1.860648e+001  1.300000e+001  1.500000e+001
      vertex  1.860648e+001  2.000000e+000  1.000000e+001
      vertex  1.860648e+001  2.000000e+000  1.500000e+001
    endloop
  endfacet
  facet normal  0.000000e+000  1.000000e+000  0.000000e+000
    outer loop
      vertex  1.860648e+001  2.000000e+000  1.000000e+001
      vertex -1.739352e+001  2.000000e+000  1.000000e+001
      vertex  1.860648e+001  2.000000e+000  1.500000e+001
    endloop
  endfacet
  facet normal  0.000000e+000  1.000000e+000  0.000000e+000
    outer loop
      vertex  1.860648e+001  2.000000e+000  1.500000e+001
      vertex -1.739352e+001  2.000000e+000  1.000000e+001
      vertex -1.739352e+001  2.000000e+000  1.500000e+001
    endloop
  endfacet
  facet normal  9.999999e-001  0.000000e+000  0.000000e+000
    outer loop
      vertex -1.739352e+001  2.000000e+000  1.500000e+001
      vertex -1.739352e+001  2.000000e+000  1.000000e+001
      vertex -1.739352e+001  1.300000e+001  1.500000e+001
    endloop
  endfacet
  facet normal  9.999999e-001  0.000000e+000  0.000000e+000
    outer loop
      vertex -1.739352e+001  1.300000e+001  1.500000e+001
      vertex -1.739352e+001  2.000000e+000  1.000000e+001
      vertex -1.739352e+001  1.300000e+001  1.000000e+001
    endloop
  endfacet
  facet normal  0.000000e+000 -1.000000e+000  0.000000e+000
    outer loop
      vertex -1.739352e+001  1.300000e+001  1.000000e+001
      vertex -4.893520e+000  1.300000e+001  1.000000e+001
      vertex -1.739352e+001  1.300000e+001  1.500000e+001
    endloop
  endfacet
  facet normal  0.000000e+000 -1.000000e+000  0.000000e+000
    outer loop
      vertex -1.739352e+001  1.300000e+001  1.500000e+001
      vertex -4.893520e+000  1.300000e+001  1.000000e+001
      vertex -4.893520e+000  1.300000e+001  1.500000e+001
    endloop
  endfacet
  facet normal  1.000000e+000  0.000000e+000  0.000000e+000
    outer loop
      vertex -4.893520e+000  1.300000e+001  1.000000e+001
      vertex -4.893520e+000  5.200000e+001  1.000000e+001
      vertex -4.893520e+000  1.300000e+001  1.500000e+001
    endloop
  endfacet
  facet normal  1.000000e+000  -0.000000e+000  0.000000e+000
    outer loop
      vertex -4.893520e+000  1.300000e+001  1.500000e+001
      vertex -4.893520e+000  5.200000e+001  1.000000e+001
      vertex -4.893520e+000  5.200000e+001  1.500000e+001
    endloop
  endfacet
  facet normal  0.000000e+000  1.000000e+000  0.000000e+000
    outer loop
      vertex -4.893520e+000  5.200000e+001  1.000000e+001
      vertex -1.539352e+001  5.200000e+001  1.000000e+001
      vertex -4.893520e+000  5.200000e+001  1.500000e+001
    endloop
  endfacet
  facet normal  0.000000e+000  1.000000e+000  0.000000e+000
    outer loop
      vertex -4.893520e+000  5.200000e+001  1.500000e+001
      vertex -1.539352e+001  5.200000e+001  1.000000e+001
      vertex -1.539352e+001  5.200000e+001  1.500000e+001
    endloop
  endfacet
  facet normal  1.000000e+000  0.000000e+000  0.000000e+000
    outer loop
      vertex -1.539352e+001  5.200000e+001  1.000000e+001
      vertex -1.539352e+001  6.025684e+001  1.000000e+001
      vertex -1.539352e+001  5.200000e+001  1.500000e+001
    endloop
  endfacet
  facet normal  1.000000e+000  -0.000000e+000  0.000000e+000
    outer loop
      vertex -1.539352e+001  5.200000e+001  1.500000e+001
      vertex -1.539352e+001  6.025684e+001  1.000000e+001
      vertex -1.539352e+001  6.025684e+001  1.500000e+001
    endloop
  endfacet
  facet normal  0.000000e+000  0.000000e+000  1.000000e+000
    outer loop
      vertex -1.539352e+001  6.025684e+001  1.000000e+001
      vertex -1.539352e+001  5.200000e+001  1.000000e+001
      vertex -4.893520e+000  5.200000e+001  1.000000e+001
    endloop
  endfacet
  facet normal  0.000000e+000  -0.000000e+000  1.000000e+000
    outer loop
      vertex -1.739352e+001  2.000000e+000  1.000000e+001
      vertex  1.860648e+001  2.000000e+000  1.000000e+001
      vertex  1.860648e+001  1.300000e+001  1.000000e+001
    endloop
  endfacet
  facet normal  0.000000e+000  0.000000e+000  1.000000e+000
    outer loop
      vertex -1.739352e+001  2.000000e+000  1.000000e+001
      vertex  1.860648e+001  1.300000e+001  1.000000e+001
      vertex  6.106480e+000  1.300000e+001  1.000000e+001
    endloop
  endfacet
  facet normal  0.000000e+000  0.000000e+000  9.999999e-001
    outer loop
      vertex -1.739352e+001  2.000000e+000  1.000000e+001
      vertex  6.106480e+000  1.300000e+001  1.000000e+001
      vertex -4.893520e+000  1.300000e+001  1.000000e+001
    endloop
  endfacet
  facet normal  0.000000e+000  0.000000e+000  1.000000e+000
    outer loop
      vertex -1.739352e+001  2.000000e+000  1.000000e+001
      vertex -4.893520e+000  1.300000e+001  1.000000e+001
      vertex -1.739352e+001  1.300000e+001  1.000000e+001
    endloop
  endfacet
  facet normal  0.000000e+000  0.000000e+000  1.000000e+000
    outer loop
      vertex -6.165580e+000  6.800000e+001  1.000000e+001
      vertex -1.539352e+001  6.025684e+001  1.000000e+001
      vertex  6.106480e+000  6.800000e+001  1.000000e+001
    endloop
  endfacet
  facet normal  0.000000e+000  0.000000e+000  1.000000e+000
    outer loop
      vertex  6.106480e+000  6.800000e+001  1.000000e+001
      vertex -1.539352e+001  6.025684e+001  1.000000e+001
      vertex -4.893520e+000  5.200000e+001  1.000000e+001
    endloop
  endfacet
  facet normal  -0.000000e+000  0.000000e+000  1.000000e+000
    outer loop
      vertex  6.106480e+000  6.800000e+001  1.000000e+001
      vertex -4.893520e+000  5.200000e+001  1.000000e+001
      vertex  6.106480e+000  1.300000e+001  1.000000e+001
    endloop
  endfacet
  facet normal  0.000000e+000  0.000000e+000  1.000000e+000
    outer loop
      vertex  6.106480e+000  1.300000e+001  1.000000e+001
      vertex -4.893520e+000  5.200000e+001  1.000000e+001
      vertex -4.893520e+000  1.300000e+001  1.000000e+001
    endloop
  endfacet
  facet normal  0.000000e+000  0.000000e+000 -1.000000e+000
    outer loop
      vertex -1.739352e+001  5.000000e+001  0.000000e+000
      vertex -1.739352e+001  6.118945e+001  0.000000e+000
      vertex -6.893520e+000  5.000000e+001  0.000000e+000
    endloop
  endfacet
  facet normal  0.000000e+000  0.000000e+000 -1.000000e+000
    outer loop
      vertex -1.939352e+001  1.243450e-014  0.000000e+000
      vertex -1.939352e+001  1.500000e+001  0.000000e+000
      vertex -6.893520e+000  1.500000e+001  0.000000e+000
    endloop
  endfacet
  facet normal  0.000000e+000  -0.000000e+000 -1.000000e+000
    outer loop
      vertex -1.939352e+001  1.243450e-014  0.000000e+000
      vertex -6.893520e+000  1.500000e+001  0.000000e+000
      vertex  8.106480e+000  1.500000e+001  0.000000e+000
    endloop
  endfacet
  facet normal  0.000000e+000  -0.000000e+000 -1.000000e+000
    outer loop
      vertex -1.939352e+001  1.243450e-014  0.000000e+000
      vertex  8.106480e+000  1.500000e+001  0.000000e+000
      vertex  2.060648e+001  1.500000e+001  0.000000e+000
    endloop
  endfacet
  facet normal  0.000000e+000  -0.000000e+000 -1.000000e+000
    outer loop
      vertex -1.939352e+001  1.243450e-014  0.000000e+000
      vertex  2.060648e+001  1.500000e+001  0.000000e+000
      vertex  2.060648e+001  8.881784e-016  0.000000e+000
    endloop
  endfacet
  facet normal  -0.000000e+000  0.000000e+000 -1.000000e+000
    outer loop
      vertex -6.893520e+000  7.000000e+001  0.000000e+000
      vertex  8.106480e+000  7.000000e+001  0.000000e+000
      vertex -1.739352e+001  6.118945e+001  0.000000e+000
    endloop
  endfacet
  facet normal  0.000000e+000  0.000000e+000 -1.000000e+000
    outer loop
      vertex -1.739352e+001  6.118945e+001  0.000000e+000
      vertex  8.106480e+000  7.000000e+001  0.000000e+000
      vertex -6.893520e+000  5.000000e+001  0.000000e+000
    endloop
  endfacet
  facet normal  0.000000e+000  0.000000e+000 -1.000000e+000
    outer loop
      vertex  8.106480e+000  7.000000e+001  0.000000e+000
      vertex  8.106480e+000  1.500000e+001  0.000000e+000
      vertex -6.893520e+000  5.000000e+001  0.000000e+000
    endloop
  endfacet
  facet normal  0.000000e+000  0.000000e+000 -1.000000e+000
    outer loop
      vertex -6.893520e+000  5.000000e+001  0.000000e+000
      vertex  8.106480e+000  1.500000e+001  0.000000e+000
      vertex -6.893520e+000  1.500000e+001  0.000000e+000
    endloop
  endfacet
  facet normal  0.000000e+000  1.000000e+000  0.000000e+000
    outer loop
      vertex -6.893520e+000  7.000000e+001  0.000000e+000
      vertex -6.893520e+000  7.000000e+001  1.500000e+001
      vertex  8.106480e+000  7.000000e+001  0.000000e+000
    endloop
  endfacet
  facet normal  0.000000e+000  1.000000e+000  -0.000000e+000
    outer loop
      vertex  8.106480e+000  7.000000e+001  0.000000e+000
      vertex -6.893520e+000  7.000000e+001  1.500000e+001
      vertex  8.106480e+000  7.000000e+001  1.500000e+001
    endloop
  endfacet
  facet normal  1.000000e+000  -0.000000e+000  0.000000e+000
    outer loop
      vertex  8.106480e+000  7.000000e+001  1.500000e+001
      vertex  8.106480e+000  1.500000e+001  1.500000e+001
      vertex  8.106480e+000  7.000000e+001  0.000000e+000
    endloop
  endfacet
  facet normal  1.000000e+000  0.000000e+000  0.000000e+000
    outer loop
      vertex  8.106480e+000  7.000000e+001  0.000000e+000
      vertex  8.106480e+000  1.500000e+001  1.500000e+001
      vertex  8.106480e+000  1.500000e+001  0.000000e+000
    endloop
  endfacet
  facet normal  0.000000e+000  1.000000e+000  0.000000e+000
    outer loop
      vertex  8.106480e+000  1.500000e+001  1.500000e+001
      vertex  2.060648e+001  1.500000e+001  1.500000e+001
      vertex  8.106480e+000  1.500000e+001  0.000000e+000
    endloop
  endfacet
  facet normal  0.000000e+000  1.000000e+000  0.000000e+000
    outer loop
      vertex  8.106480e+000  1.500000e+001  0.000000e+000
      vertex  2.060648e+001  1.500000e+001  1.500000e+001
      vertex  2.060648e+001  1.500000e+001  0.000000e+000
    endloop
  endfacet
  facet normal  1.000000e+000  0.000000e+000  0.000000e+000
    outer loop
      vertex  2.060648e+001  1.500000e+001  0.000000e+000
      vertex  2.060648e+001  1.500000e+001  1.500000e+001
      vertex  2.060648e+001  8.881784e-016  0.000000e+000
    endloop
  endfacet
  facet normal  1.000000e+000  0.000000e+000  0.000000e+000
    outer loop
      vertex  2.060648e+001  8.881784e-016  0.000000e+000
      vertex  2.060648e+001  1.500000e+001  1.500000e+001
      vertex  2.060648e+001  8.881784e-016  1.500000e+001
    endloop
  endfacet
  facet normal -2.886580e-016 -1.000000e+000  0.000000e+000
    outer loop
      vertex  2.060648e+001  8.881784e-016  1.500000e+001
      vertex -1.939352e+001  1.243450e-014  1.500000e+001
      vertex  2.060648e+001  8.881784e-016  0.000000e+000
    endloop
  endfacet
  facet normal -2.886580e-016 -1.000000e+000  0.000000e+000
    outer loop
      vertex  2.060648e+001  8.881784e-016  0.000000e+000
      vertex -1.939352e+001  1.243450e-014  1.500000e+001
      vertex -1.939352e+001  1.243450e-014  0.000000e+000
    endloop
  endfacet
  facet normal -1.000000e+000  0.000000e+000  0.000000e+000
    outer loop
      vertex -1.939352e+001  1.243450e-014  0.000000e+000
      vertex -1.939352e+001  1.243450e-014  1.500000e+001
      vertex -1.939352e+001  1.500000e+001  0.000000e+000
    endloop
  endfacet
  facet normal -1.000000e+000  0.000000e+000  0.000000e+000
    outer loop
      vertex -1.939352e+001  1.500000e+001  0.000000e+000
      vertex -1.939352e+001  1.243450e-014  1.500000e+001
      vertex -1.939352e+001  1.500000e+001  1.500000e+001
    endloop
  endfacet
  facet normal  0.000000e+000  1.000000e+000  0.000000e+000
    outer loop
      vertex -1.939352e+001  1.500000e+001  1.500000e+001
      vertex -6.893520e+000  1.500000e+001  1.500000e+001
      vertex -1.939352e+001  1.500000e+001  0.000000e+000
    endloop
  endfacet
  facet normal  0.000000e+000  1.000000e+000  0.000000e+000
    outer loop
      vertex -1.939352e+001  1.500000e+001  0.000000e+000
      vertex -6.893520e+000  1.500000e+001  1.500000e+001
      vertex -6.893520e+000  1.500000e+001  0.000000e+000
    endloop
  endfacet
  facet normal -1.000000e+000  -0.000000e+000  0.000000e+000
    outer loop
      vertex -6.893520e+000  1.500000e+001  1.500000e+001
      vertex -6.893520e+000  5.000000e+001  1.500000e+001
      vertex -6.893520e+000  1.500000e+001  0.000000e+000
    endloop
  endfacet
  facet normal -1.000000e+000  0.000000e+000  0.000000e+000
    outer loop
      vertex -6.893520e+000  1.500000e+001  0.000000e+000
      vertex -6.893520e+000  5.000000e+001  1.500000e+001
      vertex -6.893520e+000  5.000000e+001  0.000000e+000
    endloop
  endfacet
  facet normal  0.000000e+000 -1.000000e+000  -0.000000e+000
    outer loop
      vertex -6.893520e+000  5.000000e+001  0.000000e+000
      vertex -6.893520e+000  5.000000e+001  1.500000e+001
      vertex -1.739352e+001  5.000000e+001  0.000000e+000
    endloop
  endfacet
  facet normal  0.000000e+000 -1.000000e+000  0.000000e+000
    outer loop
      vertex -1.739352e+001  5.000000e+001  0.000000e+000
      vertex -6.893520e+000  5.000000e+001  1.500000e+001
      vertex -1.739352e+001  5.000000e+001  1.500000e+001
    endloop
  endfacet
  facet normal -1.000000e+000  0.000000e+000  0.000000e+000
    outer loop
      vertex -1.739352e+001  5.000000e+001  0.000000e+000
      vertex -1.739352e+001  5.000000e+001  1.500000e+001
      vertex -1.739352e+001  6.118945e+001  0.000000e+000
    endloop
  endfacet
  facet normal -1.000000e+000  0.000000e+000  0.000000e+000
    outer loop
      vertex -1.739352e+001  6.118945e+001  0.000000e+000
      vertex -1.739352e+001  5.000000e+001  1.500000e+001
      vertex -1.739352e+001  6.118945e+001  1.500000e+001
    endloop
  endfacet
  facet normal -6.427876e-001  7.660444e-001  0.000000e+000
    outer loop
      vertex -1.739352e+001  6.118945e+001  0.000000e+000
      vertex -1.739352e+001  6.118945e+001  1.500000e+001
      vertex -6.893520e+000  7.000000e+001  0.000000e+000
    endloop
  endfacet
  facet normal -6.427876e-001  7.660444e-001  0.000000e+000
    outer loop
      vertex -6.893520e+000  7.000000e+001  0.000000e+000
      vertex -1.739352e+001  6.118945e+001  1.500000e+001
      vertex -6.893520e+000  7.000000e+001  1.500000e+001
    endloop
  endfacet
endsolid CATIA STL
